<svg aria-hidden="true" style="position: absolute; width: 0; height: 0; overflow: hidden;" version="1.1" xmlns="http://www.w3.org/2000/svg" xmlns:xlink="http://www.w3.org/1999/xlink">
<defs>
<symbol id="icon-Checkmark-icon" viewBox="0 0 32 32">
<path fill="#fff" style="fill: var(--color1, #fff)" d="M0 0h32v32h-32v-32z"></path>
<path fill="#2a254b" style="fill: var(--color2, #2a254b)" d="M14 21.414l-5-5.001 1.413-1.413 3.587 3.586 7.585-7.586 1.415 1.415-9 8.999z"></path>
<path fill="#2a254b" style="fill: var(--color2, #2a254b)" d="M16 2c-2.769 0-5.476 0.821-7.778 2.359s-4.097 3.725-5.156 6.283c-1.060 2.558-1.337 5.373-0.797 8.089s1.874 5.21 3.832 7.168c1.958 1.958 4.452 3.291 7.168 3.831s5.531 0.263 8.089-0.797c2.558-1.060 4.745-2.854 6.283-5.156s2.359-5.009 2.359-7.778c0-3.713-1.475-7.274-4.101-9.899s-6.186-4.101-9.899-4.101zM16 28c-2.373 0-4.693-0.704-6.667-2.022s-3.511-3.193-4.42-5.385c-0.908-2.193-1.146-4.606-0.683-6.933s1.606-4.466 3.284-6.144 3.816-2.821 6.144-3.284c2.328-0.463 4.741-0.225 6.933 0.683s4.067 2.446 5.385 4.42c1.319 1.973 2.022 4.293 2.022 6.667 0 3.183-1.264 6.235-3.515 8.485s-5.303 3.515-8.485 3.515z"></path>
</symbol>
<symbol id="icon-delivery-icon" viewBox="0 0 32 32">
<path fill="#fff" style="fill: var(--color1, #fff)" d="M0 0h32v32h-32v-32z"></path>
<path fill="#2a254b" style="fill: var(--color2, #2a254b)" d="M16 16h-12v2h12v-2z"></path>
<path fill="#2a254b" style="fill: var(--color2, #2a254b)" d="M12 11h-10v2h10v-2z"></path>
<path fill="#2a254b" style="fill: var(--color2, #2a254b)" d="M29.919 16.606l-3-7c-0.077-0.18-0.205-0.333-0.368-0.441s-0.355-0.165-0.551-0.165h-3v-2c0-0.265-0.105-0.52-0.293-0.707s-0.442-0.293-0.707-0.293h-16v2h15v12.556c-0.456 0.265-0.854 0.617-1.173 1.036s-0.552 0.898-0.685 1.408h-6.284c-0.243-0.943-0.822-1.764-1.628-2.311s-1.783-0.78-2.749-0.657-1.854 0.593-2.497 1.324c-0.644 0.731-0.999 1.671-0.999 2.644s0.355 1.914 0.999 2.644c0.644 0.731 1.532 1.201 2.497 1.324s1.943-0.111 2.749-0.657c0.806-0.547 1.385-1.368 1.628-2.311h6.284c0.218 0.858 0.716 1.618 1.414 2.162s1.558 0.838 2.443 0.838 1.745-0.295 2.443-0.838c0.699-0.543 1.196-1.304 1.414-2.162h2.142c0.265 0 0.52-0.105 0.707-0.293s0.293-0.442 0.293-0.707v-7c0-0.135-0.028-0.269-0.081-0.394zM9 26c-0.396 0-0.782-0.117-1.111-0.337s-0.585-0.532-0.737-0.898c-0.151-0.365-0.191-0.768-0.114-1.155s0.268-0.744 0.547-1.024c0.28-0.28 0.636-0.47 1.024-0.547s0.79-0.038 1.156 0.114c0.365 0.151 0.678 0.408 0.898 0.737s0.337 0.716 0.337 1.111c-0.001 0.53-0.212 1.039-0.586 1.414s-0.883 0.586-1.414 0.586zM23 11h2.341l2.143 5h-4.484v-5zM23 26c-0.396 0-0.782-0.117-1.111-0.337s-0.585-0.532-0.737-0.898c-0.151-0.365-0.191-0.768-0.114-1.155s0.268-0.744 0.547-1.024c0.28-0.28 0.636-0.47 1.024-0.547s0.79-0.038 1.155 0.114c0.365 0.151 0.678 0.408 0.898 0.737s0.337 0.716 0.337 1.111c-0.001 0.53-0.211 1.039-0.586 1.414s-0.883 0.586-1.414 0.586zM28 23h-1.142c-0.22-0.857-0.719-1.616-1.417-2.159s-1.557-0.839-2.441-0.841v-2h5v5z"></path>
</symbol>
<symbol id="icon-Purchase" viewBox="0 0 32 32">
<path fill="#fff" style="fill: var(--color1, #fff)" d="M0 0h32v32h-32v-32z"></path>
<path fill="#2a254b" style="fill: var(--color2, #2a254b)" d="M28 6h-24c-0.53 0-1.039 0.211-1.414 0.586s-0.586 0.884-0.586 1.414v16c0 0.53 0.211 1.039 0.586 1.414s0.884 0.586 1.414 0.586h24c0.53 0 1.039-0.211 1.414-0.586s0.586-0.884 0.586-1.414v-16c0-0.53-0.211-1.039-0.586-1.414s-0.884-0.586-1.414-0.586zM28 8v3h-24v-3h24zM4 24v-11h24v11h-24z"></path>
<path fill="#2a254b" style="fill: var(--color2, #2a254b)" d="M16 20h-10v2h10v-2z"></path>
</symbol>
<symbol id="icon-Search-header" viewBox="0 0 32 32">
<path fill="#fff" style="fill: var(--color1, #fff)" d="M0 0h32v32h-32v-32z"></path>
<path fill="#2a254b" style="fill: var(--color2, #2a254b)" d="M29 27.586l-7.552-7.552c1.815-2.179 2.72-4.973 2.526-7.802s-1.469-5.474-3.563-7.386c-2.094-1.912-4.844-2.943-7.679-2.878s-5.535 1.219-7.54 3.224c-2.005 2.005-3.16 4.706-3.224 7.54s0.966 5.585 2.878 7.679c1.912 2.094 4.557 3.37 7.386 3.563s5.623-0.712 7.802-2.527l7.552 7.552 1.414-1.414zM4 13c0-1.78 0.528-3.52 1.517-5s2.395-2.634 4.039-3.315c1.645-0.681 3.454-0.859 5.2-0.512s3.349 1.204 4.608 2.463c1.259 1.259 2.116 2.862 2.463 4.608s0.169 3.555-0.512 5.2-1.835 3.050-3.315 4.039c-1.48 0.989-3.22 1.517-5 1.517-2.386-0.003-4.674-0.952-6.361-2.639s-2.636-3.975-2.639-6.361z"></path>
</symbol>
<symbol id="icon-Shopping-header" viewBox="0 0 32 32">
<path fill="#fff" style="fill: var(--color1, #fff)" d="M0 0h32v32h-32v-32z"></path>
<path fill="#2a254b" style="fill: var(--color2, #2a254b)" d="M10 30c1.105 0 2-0.895 2-2s-0.895-2-2-2c-1.105 0-2 0.895-2 2s0.895 2 2 2z"></path>
<path fill="#2a254b" style="fill: var(--color2, #2a254b)" d="M24 30c1.105 0 2-0.895 2-2s-0.895-2-2-2c-1.105 0-2 0.895-2 2s0.895 2 2 2z"></path>
<path fill="#2a254b" style="fill: var(--color2, #2a254b)" d="M28 7h-22.18l-0.82-4.2c-0.047-0.229-0.172-0.435-0.355-0.581s-0.411-0.224-0.645-0.219h-4v2h3.18l3.82 19.2c0.047 0.229 0.172 0.435 0.355 0.581s0.411 0.224 0.645 0.219h18v-2h-17.18l-0.82-4h18c0.231 0.006 0.457-0.069 0.639-0.211s0.31-0.343 0.361-0.569l2-9c0.034-0.148 0.033-0.302-0.002-0.45s-0.103-0.286-0.2-0.404c-0.096-0.118-0.218-0.212-0.357-0.275s-0.289-0.094-0.441-0.091zM25.2 16h-17.58l-1.4-7h20.53l-1.55 7z"></path>
</symbol>
<symbol id="icon-Sprout" viewBox="0 0 32 32">
<path fill="#fff" style="fill: var(--color1, #fff)" d="M0 0h32v32h-32v-32z"></path>
<path fill="#2a254b" style="fill: var(--color2, #2a254b)" d="M25 2c-2.216 0.004-4.38 0.676-6.208 1.929s-3.235 3.029-4.037 5.095c-0.643-0.932-1.502-1.695-2.505-2.222s-2.118-0.802-3.25-0.803h-3v3c0.002 1.856 0.74 3.635 2.053 4.947s3.092 2.051 4.947 2.053h1v9.049c-2.297 0.225-4.444 1.243-6.071 2.879l1.414 1.414c0.837-0.836 1.848-1.477 2.962-1.875s2.302-0.545 3.479-0.429c1.177 0.116 2.314 0.492 3.329 1.1s1.882 1.434 2.539 2.418l1.662-1.113c-0.82-1.225-1.901-2.253-3.165-3.011s-2.681-1.226-4.148-1.371v-9.062h1c2.916-0.003 5.712-1.163 7.775-3.225s3.222-4.858 3.225-7.775v-3h-3zM13 14c-1.326-0.001-2.596-0.529-3.534-1.466s-1.465-2.208-1.466-3.534v-1h1c1.326 0.001 2.597 0.529 3.534 1.466s1.465 2.208 1.466 3.534v1h-1zM26 5c-0.003 2.386-0.952 4.674-2.639 6.361s-3.975 2.636-6.361 2.639h-1v-1c0.003-2.386 0.952-4.674 2.639-6.361s3.975-2.636 6.361-2.639h1v1z"></path>
</symbol>
<symbol id="icon-User-header" viewBox="0 0 32 32">
<path fill="#fff" style="fill: var(--color1, #fff)" d="M0 0h32v32h-32v-32z"></path>
<path fill="#2a254b" style="fill: var(--color2, #2a254b)" d="M16 8c-0.989 0-1.956 0.293-2.778 0.843s-1.463 1.33-1.842 2.244c-0.378 0.914-0.477 1.919-0.285 2.889s0.669 1.861 1.368 2.56c0.699 0.699 1.59 1.175 2.56 1.368s1.975 0.094 2.889-0.285c0.914-0.378 1.695-1.019 2.244-1.842s0.843-1.789 0.843-2.778c0-1.326-0.527-2.598-1.464-3.536s-2.209-1.464-3.536-1.464zM16 16c-0.593 0-1.173-0.176-1.667-0.506s-0.878-0.798-1.105-1.346c-0.227-0.548-0.286-1.151-0.171-1.733s0.401-1.116 0.821-1.536c0.42-0.42 0.954-0.705 1.536-0.821s1.185-0.056 1.733 0.171c0.548 0.227 1.017 0.612 1.346 1.105s0.506 1.073 0.506 1.667c-0.001 0.795-0.317 1.558-0.88 2.12s-1.325 0.879-2.12 0.88z"></path>
<path fill="#2a254b" style="fill: var(--color2, #2a254b)" d="M16 2c-2.769 0-5.476 0.821-7.778 2.359s-4.097 3.725-5.156 6.283c-1.060 2.558-1.337 5.373-0.797 8.089s1.874 5.21 3.832 7.168c1.958 1.958 4.452 3.291 7.168 3.832s5.531 0.263 8.089-0.797c2.558-1.060 4.745-2.854 6.283-5.156s2.359-5.009 2.359-7.778c-0.004-3.712-1.481-7.27-4.105-9.895s-6.183-4.101-9.895-4.105zM10 26.376v-1.376c0.001-0.795 0.317-1.558 0.88-2.12s1.325-0.879 2.12-0.88h6c0.795 0.001 1.558 0.317 2.12 0.88s0.879 1.325 0.88 2.12v1.376c-1.821 1.063-3.891 1.624-6 1.624s-4.179-0.56-6-1.624zM23.993 24.926c-0.020-1.312-0.554-2.563-1.488-3.485s-2.192-1.439-3.504-1.441h-6c-1.312 0.002-2.57 0.52-3.504 1.441s-1.468 2.173-1.488 3.485c-1.813-1.619-3.092-3.751-3.667-6.113s-0.419-4.843 0.448-7.115 2.403-4.226 4.405-5.605c2.002-1.379 4.376-2.118 6.807-2.118s4.805 0.738 6.807 2.118c2.002 1.379 3.538 3.334 4.405 5.605s1.023 4.753 0.448 7.115c-0.575 2.362-1.854 4.494-3.667 6.113z"></path>
</symbol>
<symbol id="icon-cross" viewBox="0 0 32 32">
<path d="M31.708 25.708c-0-0-0-0-0-0l-9.708-9.708 9.708-9.708c0-0 0-0 0-0 0.105-0.105 0.18-0.227 0.229-0.357 0.133-0.356 0.057-0.771-0.229-1.057l-4.586-4.586c-0.286-0.286-0.702-0.361-1.057-0.229-0.13 0.048-0.252 0.124-0.357 0.228 0 0-0 0-0 0l-9.708 9.708-9.708-9.708c-0-0-0-0-0-0-0.105-0.104-0.227-0.18-0.357-0.228-0.356-0.133-0.771-0.057-1.057 0.229l-4.586 4.586c-0.286 0.286-0.361 0.702-0.229 1.057 0.049 0.13 0.124 0.252 0.229 0.357 0 0 0 0 0 0l9.708 9.708-9.708 9.708c-0 0-0 0-0 0-0.104 0.105-0.18 0.227-0.229 0.357-0.133 0.355-0.057 0.771 0.229 1.057l4.586 4.586c0.286 0.286 0.702 0.361 1.057 0.229 0.13-0.049 0.252-0.124 0.357-0.229 0-0 0-0 0-0l9.708-9.708 9.708 9.708c0 0 0 0 0 0 0.105 0.105 0.227 0.18 0.357 0.229 0.356 0.133 0.771 0.057 1.057-0.229l4.586-4.586c0.286-0.286 0.362-0.702 0.229-1.057-0.049-0.13-0.124-0.252-0.229-0.357z"></path>
</symbol>
<symbol id="icon-facebook2" viewBox="0 0 32 32" fill="#FFF">
<path d="M29 0h-26c-1.65 0-3 1.35-3 3v26c0 1.65 1.35 3 3 3h13v-14h-4v-4h4v-2c0-3.306 2.694-6 6-6h4v4h-4c-1.1 0-2 0.9-2 2v2h6l-1 4h-5v14h9c1.65 0 3-1.35 3-3v-26c0-1.65-1.35-3-3-3z"></path>
</symbol>
<symbol id="icon-instagram" viewBox="0 0 32 32" fill="#FFF">
<path d="M16 2.881c4.275 0 4.781 0.019 6.462 0.094 1.563 0.069 2.406 0.331 2.969 0.55 0.744 0.288 1.281 0.638 1.837 1.194 0.563 0.563 0.906 1.094 1.2 1.838 0.219 0.563 0.481 1.412 0.55 2.969 0.075 1.688 0.094 2.194 0.094 6.463s-0.019 4.781-0.094 6.463c-0.069 1.563-0.331 2.406-0.55 2.969-0.288 0.744-0.637 1.281-1.194 1.837-0.563 0.563-1.094 0.906-1.837 1.2-0.563 0.219-1.413 0.481-2.969 0.55-1.688 0.075-2.194 0.094-6.463 0.094s-4.781-0.019-6.463-0.094c-1.563-0.069-2.406-0.331-2.969-0.55-0.744-0.288-1.281-0.637-1.838-1.194-0.563-0.563-0.906-1.094-1.2-1.837-0.219-0.563-0.481-1.413-0.55-2.969-0.075-1.688-0.094-2.194-0.094-6.463s0.019-4.781 0.094-6.463c0.069-1.563 0.331-2.406 0.55-2.969 0.288-0.744 0.638-1.281 1.194-1.838 0.563-0.563 1.094-0.906 1.838-1.2 0.563-0.219 1.412-0.481 2.969-0.55 1.681-0.075 2.188-0.094 6.463-0.094zM16 0c-4.344 0-4.887 0.019-6.594 0.094-1.7 0.075-2.869 0.35-3.881 0.744-1.056 0.412-1.95 0.956-2.837 1.85-0.894 0.888-1.438 1.781-1.85 2.831-0.394 1.019-0.669 2.181-0.744 3.881-0.075 1.713-0.094 2.256-0.094 6.6s0.019 4.887 0.094 6.594c0.075 1.7 0.35 2.869 0.744 3.881 0.413 1.056 0.956 1.95 1.85 2.837 0.887 0.887 1.781 1.438 2.831 1.844 1.019 0.394 2.181 0.669 3.881 0.744 1.706 0.075 2.25 0.094 6.594 0.094s4.888-0.019 6.594-0.094c1.7-0.075 2.869-0.35 3.881-0.744 1.050-0.406 1.944-0.956 2.831-1.844s1.438-1.781 1.844-2.831c0.394-1.019 0.669-2.181 0.744-3.881 0.075-1.706 0.094-2.25 0.094-6.594s-0.019-4.887-0.094-6.594c-0.075-1.7-0.35-2.869-0.744-3.881-0.394-1.063-0.938-1.956-1.831-2.844-0.887-0.887-1.781-1.438-2.831-1.844-1.019-0.394-2.181-0.669-3.881-0.744-1.712-0.081-2.256-0.1-6.6-0.1v0z"></path>
<path d="M16 7.781c-4.537 0-8.219 3.681-8.219 8.219s3.681 8.219 8.219 8.219 8.219-3.681 8.219-8.219c0-4.537-3.681-8.219-8.219-8.219zM16 21.331c-2.944 0-5.331-2.387-5.331-5.331s2.387-5.331 5.331-5.331c2.944 0 5.331 2.387 5.331 5.331s-2.387 5.331-5.331 5.331z"></path>
<path d="M26.462 7.456c0 1.060-0.859 1.919-1.919 1.919s-1.919-0.859-1.919-1.919c0-1.060 0.859-1.919 1.919-1.919s1.919 0.859 1.919 1.919z"></path>
</symbol>
<symbol id="icon-twitter" viewBox="0 0 32 32" fill="#FFF">
<path d="M32 7.075c-1.175 0.525-2.444 0.875-3.769 1.031 1.356-0.813 2.394-2.1 2.887-3.631-1.269 0.75-2.675 1.3-4.169 1.594-1.2-1.275-2.906-2.069-4.794-2.069-3.625 0-6.563 2.938-6.563 6.563 0 0.512 0.056 1.012 0.169 1.494-5.456-0.275-10.294-2.888-13.531-6.862-0.563 0.969-0.887 2.1-0.887 3.3 0 2.275 1.156 4.287 2.919 5.463-1.075-0.031-2.087-0.331-2.975-0.819 0 0.025 0 0.056 0 0.081 0 3.181 2.263 5.838 5.269 6.437-0.55 0.15-1.131 0.231-1.731 0.231-0.425 0-0.831-0.044-1.237-0.119 0.838 2.606 3.263 4.506 6.131 4.563-2.25 1.762-5.075 2.813-8.156 2.813-0.531 0-1.050-0.031-1.569-0.094 2.913 1.869 6.362 2.95 10.069 2.95 12.075 0 18.681-10.006 18.681-18.681 0-0.287-0.006-0.569-0.019-0.85 1.281-0.919 2.394-2.075 3.275-3.394z"></path>
</symbol>
<symbol id="icon-skype" viewBox="0 0 32 32" fill="#FFF">
<path d="M13.3 1.169c-0.050-0.031-0.106-0.056-0.156-0.081-0.056 0.012-0.106 0.019-0.162 0.031l0.319 0.050z"></path>
<path d="M1.15 13.156c-0.012 0.056-0.019 0.113-0.025 0.162 0.031 0.050 0.050 0.1 0.081 0.15l-0.056-0.313z"></path>
<path d="M30.837 18.831c0.012-0.056 0.019-0.113 0.031-0.169-0.031-0.050-0.050-0.1-0.081-0.15l0.050 0.319z"></path>
<path d="M18.5 30.719c0.050 0.031 0.106 0.056 0.156 0.081 0.056-0.012 0.113-0.019 0.169-0.025l-0.325-0.056z"></path>
<path d="M30.869 18.663c-0.012 0.056-0.019 0.113-0.031 0.169l-0.056-0.325c0.031 0.056 0.056 0.106 0.087 0.156 0.163-0.9 0.25-1.819 0.25-2.738 0-2.037-0.4-4.019-1.188-5.881-0.762-1.8-1.85-3.419-3.238-4.806s-3.006-2.475-4.8-3.237c-1.863-0.788-3.844-1.188-5.881-1.188-0.963 0-1.925 0.088-2.863 0.269 0 0-0.006 0-0.006 0 0.050 0.025 0.106 0.050 0.156 0.081l-0.319-0.050c0.056-0.012 0.106-0.019 0.162-0.031-1.287-0.681-2.731-1.050-4.194-1.050-2.388 0-4.638 0.931-6.325 2.619s-2.619 3.937-2.619 6.325c0 1.519 0.394 3.019 1.125 4.338 0.012-0.056 0.019-0.113 0.025-0.162l0.056 0.319c-0.031-0.050-0.056-0.1-0.081-0.15-0.15 0.856-0.225 1.731-0.225 2.606 0 2.038 0.4 4.019 1.188 5.881 0.763 1.8 1.85 3.413 3.237 4.8s3.006 2.475 4.806 3.238c1.863 0.788 3.844 1.188 5.881 1.188 0.887 0 1.775-0.081 2.644-0.238-0.050-0.031-0.1-0.056-0.156-0.081l0.325 0.056c-0.056 0.012-0.113 0.019-0.169 0.025 1.337 0.756 2.856 1.163 4.4 1.163 2.387 0 4.637-0.931 6.325-2.619s2.619-3.938 2.619-6.325c-0.006-1.519-0.4-3.019-1.137-4.35zM16.069 25.181c-5.369 0-7.769-2.637-7.769-4.619 0-1.012 0.75-1.725 1.781-1.725 2.3 0 1.7 3.3 5.988 3.3 2.194 0 3.406-1.194 3.406-2.413 0-0.731-0.363-1.544-1.806-1.9l-4.775-1.194c-3.844-0.963-4.544-3.044-4.544-5 0-4.056 3.819-5.581 7.406-5.581 3.306 0 7.2 1.825 7.2 4.263 0 1.044-0.906 1.65-1.938 1.65-1.962 0-1.6-2.713-5.55-2.713-1.963 0-3.044 0.887-3.044 2.156s1.55 1.675 2.894 1.981l3.538 0.787c3.869 0.863 4.85 3.125 4.85 5.25 0 3.294-2.531 5.756-7.637 5.756z"></path>
</symbol>
<symbol id="icon-linkedin2" viewBox="0 0 32 32" fill="#FFF">
<path d="M12 12h5.535v2.837h0.079c0.77-1.381 2.655-2.837 5.464-2.837 5.842 0 6.922 3.637 6.922 8.367v9.633h-5.769v-8.54c0-2.037-0.042-4.657-3.001-4.657-3.005 0-3.463 2.218-3.463 4.509v8.688h-5.767v-18z"></path>
<path d="M2 12h6v18h-6v-18z"></path>
<path d="M8 7c0 1.657-1.343 3-3 3s-3-1.343-3-3c0-1.657 1.343-3 3-3s3 1.343 3 3z"></path>
</symbol>
<symbol id="icon-pinterest" viewBox="0 0 32 32" fill="#FFF">
<path d="M16 2.138c-7.656 0-13.863 6.206-13.863 13.863 0 5.875 3.656 10.887 8.813 12.906-0.119-1.094-0.231-2.781 0.050-3.975 0.25-1.081 1.625-6.887 1.625-6.887s-0.412-0.831-0.412-2.056c0-1.925 1.119-3.369 2.506-3.369 1.181 0 1.756 0.887 1.756 1.95 0 1.188-0.756 2.969-1.15 4.613-0.331 1.381 0.688 2.506 2.050 2.506 2.462 0 4.356-2.6 4.356-6.35 0-3.319-2.387-5.638-5.787-5.638-3.944 0-6.256 2.956-6.256 6.019 0 1.194 0.456 2.469 1.031 3.163 0.113 0.137 0.131 0.256 0.094 0.4-0.106 0.438-0.338 1.381-0.387 1.575-0.063 0.256-0.2 0.306-0.463 0.188-1.731-0.806-2.813-3.337-2.813-5.369 0-4.375 3.175-8.387 9.156-8.387 4.806 0 8.544 3.425 8.544 8.006 0 4.775-3.012 8.625-7.194 8.625-1.406 0-2.725-0.731-3.175-1.594 0 0-0.694 2.644-0.863 3.294-0.313 1.206-1.156 2.712-1.725 3.631 1.3 0.4 2.675 0.619 4.106 0.619 7.656 0 13.863-6.206 13.863-13.863 0-7.662-6.206-13.869-13.863-13.869z"></path>
</symbol>
</defs>
</svg>
